<svg width="421" height="620" viewBox="0 0 421 620" fill="none" xmlns="http://www.w3.org/2000/svg">
<rect width="421" height="620" fill="white"/>
<mask id="path-1-inside-1_1_2" fill="white">
<path d="M18 13H253C335.843 13 403 80.1573 403 163V177C403 259.843 335.843 327 253 327H18V13Z"/>
</mask>
<path d="M18 -2H253C344.127 -2 418 71.873 418 163H388C388 88.4416 327.558 28 253 28H18V-2ZM418 177C418 268.127 344.127 342 253 342H18V312H253C327.558 312 388 251.558 388 177H418ZM18 327V13V327ZM253 -2C344.127 -2 418 71.873 418 163V177C418 268.127 344.127 342 253 342V312C327.558 312 388 251.558 388 177V163C388 88.4416 327.558 28 253 28V-2Z" fill="black" mask="url(#path-1-inside-1_1_2)"/>
<circle cx="68" cy="95" r="50" fill="black"/>
<mask id="path-4-inside-2_1_2" fill="white">
<path d="M18 170H150C182.033 170 208 195.967 208 228V286H76C43.9675 286 18 260.033 18 228V170Z"/>
</mask>
<path d="M18 170H208H18ZM208 301H76C35.6832 301 3 268.317 3 228H33C33 251.748 52.2518 271 76 271H208V301ZM76 301C35.6832 301 3 268.317 3 228V170H33V228C33 251.748 52.2518 271 76 271V301ZM208 170V286V170Z" fill="black" mask="url(#path-4-inside-2_1_2)"/>
<mask id="path-6-inside-3_1_2" fill="white">
<path d="M18 338H208V503C208 555.467 165.467 598 113 598H18V338Z"/>
</mask>
<path d="M18 338H208H18ZM223 503C223 563.751 173.751 613 113 613H3L33 583H113C157.183 583 193 547.183 193 503H223ZM3 613V338H33V583L3 613ZM223 338V503C223 563.751 173.751 613 113 613V583C157.183 583 193 547.183 193 503V338H223Z" fill="black" mask="url(#path-6-inside-3_1_2)"/>
</svg>
